<svg width="142" height="30" viewBox="0 0 142 30" fill="none" xmlns="http://www.w3.org/2000/svg">
<g clip-path="url(#clip0_961_880)">
<path d="M108.535 29.9804C107.964 29.9804 107.446 29.8645 106.982 29.6328C106.523 29.396 106.16 29.0711 105.894 28.658C105.632 28.2399 105.501 27.7689 105.501 27.2451C105.501 26.7212 105.632 26.2527 105.894 25.8396C106.16 25.4215 106.523 25.0966 106.982 24.8649C107.446 24.6281 107.966 24.5098 108.543 24.5098C109.028 24.5098 109.466 24.5904 109.855 24.7516C110.25 24.9128 110.581 25.1445 110.848 25.4467L110.015 26.1721C109.636 25.759 109.167 25.5525 108.607 25.5525C108.26 25.5525 107.95 25.6255 107.678 25.7716C107.406 25.9127 107.193 26.1117 107.038 26.3686C106.889 26.6255 106.814 26.9176 106.814 27.2451C106.814 27.5725 106.889 27.8647 107.038 28.1216C107.193 28.3785 107.406 28.58 107.678 28.726C107.95 28.8671 108.26 28.9376 108.607 28.9376C109.167 28.9376 109.636 28.7286 110.015 28.3105L110.848 29.0358C110.581 29.3431 110.25 29.5774 109.855 29.7386C109.46 29.8998 109.02 29.9804 108.535 29.9804Z" fill="#9B9B9B"/>
<path d="M115.303 28.7563H112.702L112.206 29.8897H110.877L113.374 24.6004H114.655L117.16 29.8897H115.799L115.303 28.7563ZM114.895 27.8269L114.007 25.8019L113.118 27.8269H114.895Z" fill="#9B9B9B"/>
<path d="M121.311 29.8897L120.23 28.4162H120.166H119.038V29.8897H117.741V24.6004H120.166C120.662 24.6004 121.092 24.6785 121.455 24.8347C121.823 24.9908 122.106 25.2125 122.303 25.4996C122.501 25.7867 122.599 26.1268 122.599 26.5197C122.599 26.9126 122.498 27.2526 122.295 27.5397C122.098 27.8218 121.815 28.0384 121.447 28.1896L122.703 29.8897H121.311ZM121.287 26.5197C121.287 26.2225 121.185 25.9958 120.983 25.8396C120.78 25.6784 120.484 25.5978 120.094 25.5978H119.038V27.4415H120.094C120.484 27.4415 120.78 27.3609 120.983 27.1997C121.185 27.0385 121.287 26.8118 121.287 26.5197Z" fill="#9B9B9B"/>
<path d="M127.74 27.1393C128.06 27.235 128.311 27.3962 128.492 27.6229C128.674 27.8445 128.765 28.119 128.765 28.4465C128.765 28.9099 128.572 29.2676 128.188 29.5194C127.81 29.7663 127.255 29.8897 126.524 29.8897H123.626V24.6004H126.364C127.047 24.6004 127.569 24.7239 127.932 24.9707C128.3 25.2175 128.484 25.5525 128.484 25.9756C128.484 26.2325 128.418 26.4617 128.284 26.6632C128.156 26.8647 127.975 27.0234 127.74 27.1393ZM124.915 25.5223V26.769H126.204C126.524 26.769 126.766 26.7161 126.932 26.6104C127.097 26.5046 127.18 26.3484 127.18 26.1419C127.18 25.9353 127.097 25.7817 126.932 25.681C126.766 25.5752 126.524 25.5223 126.204 25.5223H124.915ZM126.428 28.9678C126.769 28.9678 127.025 28.9149 127.196 28.8092C127.372 28.7034 127.46 28.5397 127.46 28.318C127.46 27.8798 127.116 27.6606 126.428 27.6606H124.915V28.9678H126.428Z" fill="#9B9B9B"/>
<path d="M132.459 29.9804C131.878 29.9804 131.352 29.862 130.883 29.6252C130.418 29.3885 130.053 29.0636 129.786 28.6505C129.525 28.2324 129.394 27.7639 129.394 27.2451C129.394 26.7262 129.525 26.2603 129.786 25.8472C130.053 25.4291 130.418 25.1017 130.883 24.8649C131.352 24.6281 131.878 24.5098 132.459 24.5098C133.041 24.5098 133.564 24.6281 134.028 24.8649C134.492 25.1017 134.858 25.4291 135.124 25.8472C135.391 26.2603 135.525 26.7262 135.525 27.2451C135.525 27.7639 135.391 28.2324 135.124 28.6505C134.858 29.0636 134.492 29.3885 134.028 29.6252C133.564 29.862 133.041 29.9804 132.459 29.9804ZM132.459 28.9376C132.79 28.9376 133.089 28.8671 133.356 28.726C133.622 28.58 133.83 28.3785 133.98 28.1216C134.135 27.8647 134.212 27.5725 134.212 27.2451C134.212 26.9176 134.135 26.6255 133.98 26.3686C133.83 26.1117 133.622 25.9127 133.356 25.7716C133.089 25.6255 132.79 25.5525 132.459 25.5525C132.128 25.5525 131.83 25.6255 131.563 25.7716C131.296 25.9127 131.085 26.1117 130.931 26.3686C130.781 26.6255 130.707 26.9176 130.707 27.2451C130.707 27.5725 130.781 27.8647 130.931 28.1216C131.085 28.3785 131.296 28.58 131.563 28.726C131.83 28.8671 132.128 28.9376 132.459 28.9376Z" fill="#9B9B9B"/>
<path d="M141.637 24.6004V29.8897H140.573L137.779 26.6784V29.8897H136.499V24.6004H137.571L140.356 27.8118V24.6004H141.637Z" fill="#9B9B9B"/>
<path fill-rule="evenodd" clip-rule="evenodd" d="M12.0301 11.6719L24.0601 23.3631L12.0301 23.3631L12.0301 11.6719ZM12.03 23.3631L0 11.6719H12.03V23.3631Z" fill="#F2F7FF"/>
<path fill-rule="evenodd" clip-rule="evenodd" d="M0 -0.0195312L12.03 11.6716V-0.0195312H0ZM12.0301 5.81214V-0.0195284L18.0393 -0.0195286C18.0412 -0.0195304 18.0431 -0.0195312 18.045 -0.0195312C21.367 -0.0195312 24.06 2.59763 24.06 5.82606C24.06 9.05449 21.367 11.6716 18.045 11.6716C18.045 11.6716 18.045 11.6717 18.045 11.6717H12.0301V5.83998C12.0301 5.83534 12.0301 5.8307 12.0301 5.82606C12.0301 5.82142 12.0301 5.81678 12.0301 5.81214Z" fill="#5F89F4"/>
<path d="M124.314 20.9803C126.109 20.9803 127.534 20.2941 128.457 19.1758V20.6499H132.02V14.3214C132.02 10.5345 129.012 7.68793 124.921 7.68793C120.91 7.68793 117.849 10.7124 117.849 14.3214C117.849 17.9812 120.514 20.9803 124.314 20.9803ZM124.921 17.6C122.995 17.6 121.596 16.1259 121.596 14.3468C121.596 12.5677 122.995 11.0936 124.921 11.0936C126.848 11.0936 128.273 12.5677 128.273 14.3468C128.273 16.1259 126.848 17.6 124.921 17.6Z" fill="#F2F7FF"/>
<path d="M133.678 2.27441V20.6499H137.426V2.27441H133.678Z" fill="#F2F7FF"/>
<path d="M137.98 2.27441V11.4621V20.6499H141.727V2.27441H137.98Z" fill="#F2F7FF"/>
<path d="M37.3021 20.6243L37.3285 15.1568H38.8325C40.8379 15.1568 41.6031 15.996 42.4211 17.5727L44.0043 20.6243H48.1734L46.4583 17.2421C45.5348 15.462 44.8751 14.2922 43.7405 13.6819C46.0097 13.097 47.4346 11.2914 47.4346 8.95185C47.4346 5.31531 44.3474 3.50977 40.3366 3.50977H33.5024V20.6243H37.3021ZM40.3894 6.94285C42.1309 6.94285 43.4766 7.6549 43.4766 9.3333C43.4766 10.9354 42.1573 11.8509 40.3366 11.8509H37.3285L37.3549 6.94285H40.3894Z" fill="#F2F7FF"/>
<path d="M56.28 20.9549C59.0506 20.9549 61.2143 19.658 62.3489 17.3947L59.4728 15.996C58.8659 17.1658 57.6785 17.827 56.2536 17.827C54.3802 17.827 53.0344 16.7081 52.7706 15.0297H62.4809V13.9616C62.4809 10.5285 60.0797 7.57861 55.937 7.57861C51.8998 7.57861 49.1556 10.5794 49.1556 14.2159C49.1556 18.2339 52.2165 20.9549 56.28 20.9549ZM52.9289 13.0207C53.1928 11.7492 54.2746 10.732 55.9106 10.732C57.4938 10.732 58.602 11.7237 58.7603 13.0207H52.9289Z" fill="#F2F7FF"/>
<path d="M80.6613 7.57861C78.3128 7.57861 76.4658 8.64668 75.6478 10.3759C74.8826 8.64668 73.0619 7.57861 70.5552 7.57861C66.3333 7.57861 64.196 10.5285 64.196 14.0379V20.6243H67.9429V14.6228C67.9429 12.7155 68.7609 11.088 70.8454 11.088C72.8772 11.088 73.748 12.6901 73.748 14.6228V20.6243H77.4949V14.5974C77.4949 12.6901 78.3656 11.088 80.3974 11.088C82.4556 11.088 83.3263 12.7155 83.3263 14.6482V20.6243H87.0732V14.0379C87.0732 10.5285 84.9095 7.57861 80.6613 7.57861Z" fill="#F2F7FF"/>
<path d="M96.4669 20.9549C100.478 20.9549 103.565 17.9542 103.565 14.2922C103.565 10.6811 100.504 7.6549 96.4669 7.6549C92.4825 7.6549 89.3952 10.6557 89.3952 14.2922C89.3952 17.9542 92.4561 20.9549 96.4669 20.9549ZM96.4669 17.5727C94.5406 17.5727 93.1421 16.0978 93.1421 14.3176C93.1421 12.5375 94.5406 11.0626 96.4669 11.0626C98.3931 11.0626 99.818 12.5375 99.818 14.3176C99.818 16.0978 98.3931 17.5727 96.4669 17.5727Z" fill="#F2F7FF"/>
<path d="M107.303 18.5391C107.91 20.1666 109.123 20.9804 110.707 20.9804C112.316 20.9804 113.451 20.1666 114.084 18.5391L118.121 8.03636H114.137L110.733 17.4201L107.303 8.03636H103.318L107.303 18.5391ZM110.707 17.5218H110.733C110.733 17.5218 110.733 17.5218 110.707 17.5218Z" fill="#F2F7FF"/>
</g>
<defs>
<clipPath id="clip0_961_880">
<rect width="142" height="30" fill="white"/>
</clipPath>
</defs>
</svg>
