<svg xmlns="http://www.w3.org/2000/svg" xmlns:xlink="http://www.w3.org/1999/xlink" xmlns:xodm="http://www.corel.com/coreldraw/odm/2003" xml:space="preserve" width="9140px" height="5940px" fill-rule="evenodd" clip-rule="evenodd" viewBox="0 0 9088.73 5906.12">
 <g id="Layer_x0020_1">
  <metadata id="CorelCorpID_0Corel-Layer"></metadata>
  <g id="_2293772637488">
   <rect fill="#FEFEFE" stroke="#FEFEFE" stroke-width="3.5" stroke-miterlimit="22.9256" x="1.75" y="1.75" width="9085.23" height="5902.62"></rect>
   <g>
    <path fill="#2B2A29" fill-rule="nonzero" d="M1022.3 5528.34l-152.3 -306.81 -137.87 0.17 0 306.64 -110.02 0 0 -726.36 281.16 0c67.92,0 122.42,19.53 163.51,58.58 41.09,39.05 61.63,90.16 61.63,153.32 0,49.58 -13.41,91.17 -40.24,124.8 -26.83,33.61 -61.63,56.19 -104.41,67.74l167.07 321.92 -128.53 0zm-127.18 -627.54l-162.99 0 0 228.2 162.99 0c36.68,0 66.39,-10.02 89.14,-30.23 22.76,-20.03 34.13,-47.87 34.13,-83.36 0,-35.49 -11.2,-63.51 -33.61,-83.88 -22.42,-20.54 -52.3,-30.73 -89.66,-30.73zm459.45 398.33c0,45.5 11.38,80.98 34.12,106.45 22.76,25.47 55.19,38.2 97.29,38.2 28.53,0 51.62,-3.9 69.28,-11.71 17.65,-7.81 36.34,-21.56 56.03,-41.26l66.22 62.14c-27.85,27.84 -56.2,48.22 -85.07,61.12 -28.86,12.91 -65.02,19.36 -108.49,19.36 -71.31,0 -128.02,-20.72 -170.13,-62.14 -42.11,-41.43 -63.16,-109 -63.16,-202.73 0,-82.85 19.7,-147.55 59.09,-194.06 39.38,-46.53 92.7,-69.78 159.94,-69.78 67.91,0 121.39,22.91 160.45,68.76 39.04,45.84 58.57,105.78 58.57,179.8l0 45.85 -334.14 0zm216.99 -142.63c-7.98,-19.69 -21.06,-35.49 -39.05,-47.37 -17.83,-11.88 -38.72,-17.83 -62.32,-17.83 -24.27,0 -45.33,5.78 -62.81,17.32 -17.67,11.54 -30.91,27.51 -39.56,47.88 -8.84,20.37 -13.25,43.8 -13.25,70.29l231.25 0c0,-25.13 -4.75,-48.55 -14.26,-70.29zm374.89 -57.05l0 428.89 -103.92 0 0 -428.89 -59.08 0 0 -79.46 59.08 0 0 -79.46c0,-40.74 12.06,-74.87 36.17,-102.38 24.11,-27.51 59.25,-41.26 105.44,-41.26l65.2 0 0 88.63 -45.84 0c-38.04,0 -57.05,20.04 -57.05,60.1l0 74.37 102.89 0 0 79.46 -102.89 0zm559.28 372.85c-18.34,19.02 -40.25,33.96 -65.71,44.83 -25.47,10.87 -55.18,16.3 -89.14,16.3 -33.28,0 -62.65,-5.43 -88.12,-16.3 -25.47,-10.87 -48.56,-27.16 -69.27,-48.9 -20.72,-21.73 -35.49,-48.56 -44.32,-80.48 -8.83,-31.92 -13.24,-71.65 -13.24,-119.19 0,-46.18 4.41,-85.57 13.24,-118.17 8.83,-32.6 23.6,-59.6 44.32,-80.99 20.71,-21.39 43.63,-37.52 68.76,-48.39 25.13,-10.86 54.67,-16.29 88.63,-16.29 33.28,0 62.82,5.43 88.63,16.29 25.81,10.87 49.07,27.16 69.78,48.9 20.72,21.73 35.49,48.56 44.32,80.48 8.83,31.92 13.24,71.31 13.24,118.17 0,46.86 -4.41,86.59 -13.24,119.19 -8.83,32.6 -24.79,60.78 -47.88,84.55zm-78.44 -345.34c-19.7,-19.7 -45.17,-29.55 -76.41,-29.55 -30.56,0 -54.33,8.49 -71.31,25.47 -16.98,16.98 -27.84,37.19 -32.6,60.62 -4.75,23.43 -7.13,51.78 -7.13,85.06 0,36 2.21,64.86 6.62,86.59 4.42,21.73 15.45,41.43 33.11,59.09 17.66,17.66 41.43,26.49 71.31,26.49 30.56,0 54.5,-8.66 71.82,-25.98 17.32,-17.32 28.36,-37.69 33.11,-61.12 4.76,-23.43 7.13,-51.79 7.13,-85.07 0,-35.99 -2.21,-64.86 -6.62,-86.59 -4.41,-21.73 -14.09,-40.07 -29.03,-55.01zm562.34 5.09c-11.55,-11.54 -23.27,-20.2 -35.15,-25.98 -11.88,-5.77 -25.98,-8.66 -42.28,-8.66 -29.2,0 -53.65,10.53 -73.35,31.59 -19.69,21.22 -29.54,49.41 -29.54,84.89l0 314.45 -101.87 0 0 -517.52 101.87 0 0 56.04c12.23,-18.34 30.73,-33.28 55.52,-44.83 24.79,-11.55 51.44,-17.31 79.97,-17.31 27.16,0 49.75,3.39 67.74,10.18 18,6.79 36.51,19.69 55.53,38.71l-78.44 78.44zm242.45 167.08c0,45.5 11.38,80.98 34.12,106.45 22.76,25.47 55.19,38.2 97.29,38.2 28.53,0 51.62,-3.9 69.28,-11.71 17.65,-7.81 36.34,-21.56 56.03,-41.26l66.22 62.14c-27.85,27.84 -56.2,48.22 -85.07,61.12 -28.86,12.91 -65.02,19.36 -108.49,19.36 -71.31,0 -128.02,-20.72 -170.13,-62.14 -42.11,-41.43 -63.16,-109 -63.16,-202.73 0,-82.85 19.7,-147.55 59.09,-194.06 39.38,-46.53 92.7,-69.78 159.94,-69.78 67.91,0 121.39,22.91 160.45,68.76 39.04,45.84 58.57,105.78 58.57,179.8l0 45.85 -334.14 0zm216.99 -142.63c-7.98,-19.69 -21.06,-35.49 -39.05,-47.37 -17.83,-11.88 -38.72,-17.83 -62.32,-17.83 -24.27,0 -45.33,5.78 -62.81,17.32 -17.67,11.54 -30.91,27.51 -39.56,47.88 -8.84,20.37 -13.25,43.8 -13.25,70.29l231.25 0c0,-25.13 -4.75,-48.55 -14.26,-70.29zm421.75 376.93c-46.86,0 -87.44,-5.26 -121.74,-15.79 -34.3,-10.53 -66.04,-30.05 -95.25,-58.58l68.25 -68.25c19.02,19.7 41.43,33.62 67.24,41.76 25.81,8.16 52.97,12.23 81.5,12.23 33.27,0 60.44,-5.94 81.5,-17.83 21.05,-11.88 31.58,-29.71 31.58,-53.48 0,-19.02 -5.43,-33.96 -16.3,-44.83 -10.87,-10.86 -28.53,-16.29 -52.98,-16.29l-82.51 -7.14c-50.26,-4.07 -88.29,-17.65 -114.1,-40.75 -25.81,-23.08 -38.72,-57.04 -38.72,-101.87 0,-49.57 18.17,-88.28 54.51,-116.13 36.33,-27.84 83.03,-41.76 140.07,-41.76 40.07,0 76.07,4.58 107.99,13.74 31.92,9.17 59.77,23.95 83.54,44.32l-65.2 66.22c-14.95,-12.91 -33.79,-22.41 -56.55,-28.53 -22.74,-6.11 -46.34,-9.17 -70.8,-9.17 -30.56,0 -53.82,5.95 -69.78,17.83 -15.96,11.88 -23.94,28.01 -23.94,48.39 0,16.98 5.27,30.39 15.79,40.24 10.53,9.85 29.04,16.13 55.52,18.85l81.5 7.13c50.26,4.07 88.46,17.99 114.61,41.76 26.15,23.78 39.22,58.41 39.22,103.91 0,52.3 -19.87,92.71 -59.6,121.23 -39.73,28.53 -91.51,42.79 -155.35,42.79zm495.1 -5.09c-45.5,0 -80.48,-13.92 -104.93,-41.94 -24.44,-27.84 -36.67,-61.8 -36.67,-102.05l0 -284.9 -59.09 0 0 -79.46 59.09 0 0 -156.88 103.91 0 0 156.88 99.84 0 0 79.46 -99.84 0 0 279.98c0,40.24 19.01,60.28 57.05,60.28l42.79 0 0 88.63 -62.15 0zm541.97 -110.03l0 110.03 -100.86 0 0 -110.03 -293.39 0 0 -96.77 255.69 -519.56 112.41 0.17 -254.69 519.56 179.98 -0.17 0 -169.11 100.86 0 0 169.11 77.42 0 0 96.77 -77.42 0zm442.12 115.12c-75.39,0 -134.13,-21.05 -176.24,-63.16 -42.1,-42.11 -66.72,-82.18 -73.86,-120.21 -7.12,-38.03 -10.69,-99.84 -10.69,-185.41 0,-84.89 3.57,-146.53 10.69,-184.9 7.14,-38.37 31.76,-78.61 73.86,-120.72 42.11,-42.11 100.85,-63.16 176.24,-63.16 67.92,0 124.79,19.36 170.64,58.07 45.84,38.71 75.21,93.72 88.12,165.03l-112.06 0c-8.83,-38.71 -25.64,-69.1 -50.42,-91.17 -24.79,-22.08 -56.89,-33.11 -96.28,-33.11 -44.14,0 -77.42,12.05 -99.83,36.17 -22.41,24.1 -36.51,51.44 -42.28,82 -5.77,30.57 -8.66,81.16 -8.66,151.79 0,74.03 2.71,125.3 8.15,153.83 5.43,28.52 19.53,55.01 42.28,79.46 22.75,24.45 56.2,36.67 100.34,36.67 39.39,0 71.65,-11.2 96.78,-33.61 25.13,-22.41 42.11,-52.64 50.94,-90.67l111.04 0c-12.23,71.31 -41.43,126.32 -87.61,165.03 -46.18,38.71 -103.23,58.07 -171.15,58.07zm531.78 -5.09c-46.87,0 -82.18,-13.42 -105.95,-40.24 -23.77,-27 -35.66,-61.13 -35.66,-102.56l0 -583.56 103.91 0 0 577.45c0,20.55 4.25,35.66 12.73,45.5 8.49,9.85 22.93,14.78 43.3,14.78l45.85 0 0 88.63 -64.18 0zm175.21 -618.37l0 -110.03 110.02 0 0 110.03 -110.02 0zm3.06 618.37l0 -516.5 103.91 0 0 516.5 -103.91 0zm898.52 0l0 -315.47c0,-38.88 -9.51,-67.74 -28.53,-86.93 -19.01,-19.02 -44.14,-28.53 -75.38,-28.53 -30.57,0 -56.04,9.34 -76.41,28.02 -20.37,18.85 -30.56,46.18 -30.56,82.18l0 320.73 -103.91 0 0 -315.47c0,-38.88 -9.68,-67.74 -28.86,-86.93 -19.19,-19.02 -44.49,-28.53 -76.07,-28.53 -31.58,0 -57.39,9.68 -77.59,29.04 -20.21,19.53 -30.39,48.22 -30.39,86.42l0 315.47 -101.88 0 0 -517.52 101.88 0 0 51.96c16.98,-18.34 37.69,-32.6 62.14,-42.79 24.45,-10.19 49.57,-15.27 75.38,-15.27 65.2,0 114.1,25.12 146.7,75.38 41.43,-50.26 95.42,-75.38 161.98,-75.38 26.48,0 50.93,4.07 73.34,12.22 22.42,8.15 42.12,20.54 59.09,37.35 16.98,16.64 30.05,37.35 39.22,62.14 9.17,24.96 13.76,51.96 13.76,81.16l0 330.75 -103.91 0zm541.96 0l0 -46.86c-19.7,19.35 -39.39,32.77 -59.08,40.41 -19.71,7.64 -45.85,11.54 -78.45,11.54 -61.12,0 -106.29,-14.94 -135.49,-44.82 -29.2,-29.89 -43.8,-67.58 -43.8,-113.08 0,-44.83 15.45,-80.82 46.18,-107.99 30.73,-27.16 75.21,-40.75 133.28,-40.75l137.36 0 0 -36.67c0,-33.28 -8.83,-57.73 -26.66,-73.35 -17.83,-15.62 -47.03,-23.43 -87.44,-23.43 -28.01,0 -50.6,3.57 -67.4,10.69 -16.64,7.14 -32.27,20.21 -46.69,39.23l-68.26 -64.18c23.77,-27.16 49.75,-46.35 77.93,-57.56 28.19,-11.2 64.02,-16.8 107.48,-16.8 141.94,0 212.91,59.25 212.91,177.59l0 346.03 -101.87 0zm0 -229.21l-122.42 0c-62.31,0 -93.55,24.78 -93.55,74.36 0,48.9 31.92,73.35 95.59,73.35 24.79,0 43.8,-1.7 57.05,-5.09 13.41,-3.4 27.33,-12.06 41.77,-25.98 14.43,-13.92 21.56,-38.89 21.56,-74.88l0 -41.76zm415.64 229.21c-45.5,0 -80.48,-13.92 -104.93,-41.94 -24.45,-27.84 -36.67,-61.8 -36.67,-102.05l0 -284.9 -59.09 0 0 -79.46 59.09 0 0 -156.88 103.91 0 0 156.88 99.83 0 0 79.46 -99.83 0 0 279.98c0,40.24 19.01,60.28 57.04,60.28l42.79 0 0 88.63 -62.14 0zm272 -229.21c0,45.5 11.38,80.98 34.12,106.45 22.76,25.47 55.19,38.2 97.29,38.2 28.53,0 51.62,-3.9 69.28,-11.71 17.65,-7.81 36.34,-21.56 56.03,-41.26l66.22 62.14c-27.85,27.84 -56.2,48.22 -85.07,61.12 -28.86,12.91 -65.02,19.36 -108.49,19.36 -71.31,0 -128.02,-20.72 -170.13,-62.14 -42.11,-41.43 -63.16,-109 -63.16,-202.73 0,-82.85 19.7,-147.55 59.09,-194.06 39.38,-46.53 92.7,-69.78 159.94,-69.78 67.91,0 121.39,22.91 160.45,68.76 39.04,45.84 58.57,105.78 58.57,179.8l0 45.85 -334.14 0zm216.99 -142.63c-7.98,-19.69 -21.06,-35.49 -39.05,-47.37 -17.83,-11.88 -38.72,-17.83 -62.32,-17.83 -24.27,0 -45.33,5.78 -62.81,17.32 -17.67,11.54 -30.91,27.51 -39.56,47.88 -8.84,20.37 -13.25,43.8 -13.25,70.29l231.25 0c0,-25.13 -4.75,-48.55 -14.26,-70.29z"></path>
    <path fill="#98C348" fill-rule="nonzero" d="M4485.27 3265.45c-68.26,68.27 -125.11,130.71 -187.72,186.73 -221.29,197.89 -421.82,416.74 -640.12,626.49 -2.99,-90.84 -0.47,-178.38 -1.7,-272.47 306.98,-300.78 617.14,-604.67 927.2,-908.46 302.52,302.56 606.03,606.09 911.18,911.26l0 261.12c-1.96,1.98 -3.41,4.54 -5.06,4.72 -1.36,0.15 -3.06,-2.52 -4.55,-4.03 -265.44,-265.43 -530.86,-530.87 -796.39,-796.21 -0.76,-0.75 -2.96,-0.08 -6.61,-0.08l0 1017.51c-32.75,6.35 -64.51,2.18 -95.83,2.91 -32.06,0.77 -64.16,0.17 -100.4,0.17l0 -1029.66z"></path>
    <path fill="none" fill-rule="nonzero" stroke="#98C348" stroke-width="19.72" stroke-miterlimit="10" d="M4485.28 3265.45c-68.26,68.27 -125.12,130.71 -187.73,186.73 -221.29,197.88 -421.82,416.74 -640.12,626.49 -2.99,-90.84 -0.47,-178.38 -1.69,-272.47 306.97,-300.78 617.14,-604.67 927.2,-908.47 302.52,302.57 606.02,606.1 911.17,911.27l0 261.12c-1.95,1.98 -3.4,4.54 -5.05,4.72 -1.37,0.14 -3.06,-2.52 -4.55,-4.03 -265.44,-265.43 -530.87,-530.88 -796.4,-796.21 -0.76,-0.75 -2.95,-0.09 -6.61,-0.09l0 1017.52c-32.75,6.35 -64.51,2.17 -95.82,2.91 -32.07,0.77 -64.17,0.17 -100.4,0.17l0 -1029.66z"></path>
    <path fill="#98C348" fill-rule="nonzero" d="M4586.95 2516.12c-266.07,266.05 -524,523.98 -782.02,782 -1.51,-1.55 -3.3,-2.88 -4.41,-4.67 -1.04,-1.66 -1.92,-3.72 -1.92,-5.62 -0.11,-84.18 -0.09,-168.37 -0.09,-249.78 259.03,-259 516.66,-516.66 776.29,-776.27l10.51 0 778.53 778.54 0 252.69 -776.89 -776.89z"></path>
    <path fill="none" fill-rule="nonzero" stroke="#98C348" stroke-width="19.72" stroke-miterlimit="10" d="M4586.95 2516.12c-266.07,266.05 -524,523.98 -782.02,782 -1.51,-1.55 -3.29,-2.89 -4.41,-4.68 -1.04,-1.66 -1.92,-3.72 -1.92,-5.62 -0.1,-84.18 -0.08,-168.36 -0.08,-249.77 259.02,-259.01 516.66,-516.66 776.29,-776.27l10.51 0 778.52 778.53 0 252.7 -776.89 -776.89z"></path>
    <path fill="#98C348" fill-rule="nonzero" d="M4575.95 1879.85c-195.99,195.99 -386.21,386.21 -580.22,580.22l0 -264.61c193.11,-193.09 386.25,-386.23 574.92,-574.9 195.54,195.56 393.11,393.12 599.45,599.44l0 253.99c-200.1,-200.07 -395.28,-395.25 -594.15,-594.14z"></path>
    <path fill="none" fill-rule="nonzero" stroke="#98C348" stroke-width="19.72" stroke-miterlimit="10" d="M4575.95 1879.84c-195.98,195.99 -386.2,386.21 -580.21,580.22l0 -264.61c193.1,-193.08 386.25,-386.23 574.92,-574.89 195.54,195.55 393.1,393.11 599.44,599.44l0 253.99c-200.1,-200.08 -395.27,-395.26 -594.15,-594.15z"></path>
    <path fill="#98C348" fill-rule="nonzero" d="M4124.45 1683.23l0 -254.8c148.88,-154.72 297.42,-309.07 444.57,-462.02 4.98,0 7.17,-0.26 9.29,0.06 1.95,0.28 4.38,0.58 5.66,1.84 157.21,156.97 314.29,314.02 468.62,468.28l0 275.19c-161.75,-161.77 -318.02,-318.02 -478.33,-478.35 -149.05,149.05 -297.27,297.26 -449.81,449.8z"></path>
    <path fill="none" fill-rule="nonzero" stroke="#98C348" stroke-width="19.72" stroke-miterlimit="10" d="M4124.45 1683.23l0 -254.81c148.88,-154.71 297.42,-309.07 444.58,-462.01 4.97,0 7.17,-0.27 9.28,0.06 1.96,0.28 4.39,0.58 5.66,1.83 157.21,156.98 314.3,314.02 468.63,468.28l0 275.2c-161.76,-161.78 -318.03,-318.03 -478.34,-478.36 -149.05,149.06 -297.26,297.27 -449.81,449.81z"></path>
    <path fill="#52AA4E" fill-rule="nonzero" d="M2290.75 3265.45c-68.26,68.27 -125.12,130.71 -187.73,186.73 -221.28,197.89 -421.82,416.74 -640.11,626.49 -3,-90.84 -0.48,-178.38 -1.68,-272.47 306.98,-300.78 617.12,-604.67 927.18,-908.46 302.52,302.56 606.03,606.09 911.17,911.26l0 261.12c-1.98,1.98 -3.39,4.54 -5.06,4.72 -1.35,0.15 -3.05,-2.52 -4.54,-4.03 -265.42,-265.43 -530.87,-530.87 -796.4,-796.21 -0.75,-0.75 -2.95,-0.08 -6.61,-0.08l0 1017.51c-32.75,6.35 -64.5,2.18 -95.81,2.91 -32.08,0.77 -64.18,0.17 -100.41,0.17l0 -1029.66z"></path>
    <path fill="none" fill-rule="nonzero" stroke="#52AA4E" stroke-width="19.72" stroke-miterlimit="10" d="M2290.75 3265.45c-68.25,68.27 -125.12,130.71 -187.73,186.73 -221.28,197.88 -421.82,416.74 -640.11,626.49 -3,-90.84 -0.48,-178.38 -1.68,-272.47 306.98,-300.78 617.12,-604.67 927.18,-908.47 302.52,302.57 606.03,606.1 911.18,911.27l0 261.12c-1.99,1.98 -3.4,4.54 -5.06,4.72 -1.36,0.14 -3.06,-2.52 -4.54,-4.03 -265.43,-265.43 -530.88,-530.88 -796.41,-796.21 -0.75,-0.75 -2.95,-0.09 -6.61,-0.09l0 1017.52c-32.75,6.35 -64.5,2.17 -95.81,2.91 -32.08,0.77 -64.18,0.17 -100.41,0.17l0 -1029.66z"></path>
    <path fill="#52AA4E" fill-rule="nonzero" d="M2392.42 2516.12c-266.05,266.05 -523.99,523.98 -782.01,782 -1.5,-1.55 -3.28,-2.88 -4.41,-4.67 -1.03,-1.66 -1.93,-3.72 -1.93,-5.62 -0.09,-84.18 -0.07,-168.37 -0.07,-249.78 259.01,-259 516.64,-516.66 776.29,-776.27l10.49 0c260.06,260.05 517.65,517.63 778.55,778.54l0 252.69c-258.38,-258.36 -517.05,-517.04 -776.91,-776.89z"></path>
    <path fill="none" fill-rule="nonzero" stroke="#52AA4E" stroke-width="19.72" stroke-miterlimit="10" d="M2392.42 2516.12c-266.05,266.05 -523.99,523.98 -782.01,782 -1.5,-1.55 -3.28,-2.89 -4.41,-4.68 -1.03,-1.66 -1.93,-3.72 -1.93,-5.62 -0.09,-84.18 -0.07,-168.36 -0.07,-249.77 259.01,-259.01 516.64,-516.66 776.3,-776.27l10.48 0c260.06,260.04 517.65,517.63 778.55,778.53l0 252.7c-258.38,-258.36 -517.05,-517.04 -776.91,-776.89z"></path>
    <path fill="#52AA4E" fill-rule="nonzero" d="M2381.43 1879.85c-195.97,195.99 -386.21,386.21 -580.2,580.22l0 -264.61 574.9 -574.9c195.54,195.56 393.1,393.12 599.44,599.44l0 253.99c-200.1,-200.07 -395.25,-395.25 -594.14,-594.14z"></path>
    <path fill="none" fill-rule="nonzero" stroke="#52AA4E" stroke-width="19.72" stroke-miterlimit="10" d="M2381.43 1879.84c-195.97,195.99 -386.21,386.21 -580.2,580.22l0 -264.61 574.9 -574.89c195.54,195.55 393.1,393.11 599.45,599.44l0 253.99c-200.1,-200.08 -395.26,-395.26 -594.15,-594.15z"></path>
    <path fill="#4EAB68" fill-rule="nonzero" d="M6671.55 3265.45c-68.27,68.27 -125.13,130.71 -187.75,186.73 -221.26,197.89 -421.81,416.74 -640.09,626.49 -2.99,-90.84 -0.47,-178.38 -1.7,-272.47 306.98,-300.78 617.14,-604.67 927.18,-908.46 302.54,302.56 606.05,606.09 911.18,911.26l0 261.12c-1.96,1.98 -3.39,4.54 -5.04,4.72 -1.36,0.15 -3.08,-2.52 -4.55,-4.03 -265.44,-265.43 -530.86,-530.87 -796.39,-796.21 -0.76,-0.75 -2.98,-0.08 -6.64,-0.08l0 1017.51c-32.72,6.35 -64.5,2.18 -95.81,2.91 -32.05,0.77 -64.15,0.17 -100.39,0.17l0 -1029.66z"></path>
    <path fill="none" fill-rule="nonzero" stroke="#4EAB68" stroke-width="19.72" stroke-miterlimit="10" d="M6671.55 3265.45c-68.27,68.27 -125.13,130.71 -187.74,186.73 -221.27,197.88 -421.82,416.74 -640.1,626.49 -2.98,-90.84 -0.46,-178.38 -1.69,-272.47 306.98,-300.78 617.14,-604.67 927.18,-908.47 302.54,302.57 606.05,606.1 911.17,911.27l0 261.12c-1.96,1.98 -3.38,4.54 -5.04,4.72 -1.35,0.14 -3.07,-2.52 -4.54,-4.03 -265.44,-265.43 -530.87,-530.88 -796.4,-796.21 -0.75,-0.75 -2.97,-0.09 -6.63,-0.09l0 1017.52c-32.73,6.35 -64.5,2.17 -95.81,2.91 -32.06,0.77 -64.16,0.17 -100.4,0.17l0 -1029.66z"></path>
    <path fill="#4EAB68" fill-rule="nonzero" d="M6773.2 2516.12l-781.99 782c-1.51,-1.55 -3.3,-2.88 -4.41,-4.67 -1.03,-1.66 -1.92,-3.72 -1.92,-5.62 -0.11,-84.18 -0.08,-168.37 -0.08,-249.78l776.28 -776.27 10.51 0 778.53 778.54 0 252.69c-258.36,-258.36 -517.04,-517.04 -776.92,-776.89z"></path>
    <path fill="none" fill-rule="nonzero" stroke="#4EAB68" stroke-width="19.72" stroke-miterlimit="10" d="M6773.21 2516.12l-782 782c-1.5,-1.55 -3.29,-2.89 -4.41,-4.68 -1.03,-1.66 -1.91,-3.72 -1.91,-5.62 -0.11,-84.18 -0.09,-168.36 -0.09,-249.77l776.29 -776.27 10.51 0 778.53 778.53 0 252.7c-258.36,-258.36 -517.05,-517.04 -776.92,-776.89z"></path>
    <path fill="#4EAB68" fill-rule="nonzero" d="M6762.21 1879.85c-195.97,195.99 -386.18,386.21 -580.2,580.22l0 -264.61c193.09,-193.09 386.25,-386.23 574.91,-574.9l599.44 599.44 0 253.99 -594.15 -594.14z"></path>
    <path fill="none" fill-rule="nonzero" stroke="#4EAB68" stroke-width="19.72" stroke-miterlimit="10" d="M6762.21 1879.84c-195.96,195.99 -386.17,386.21 -580.19,580.22l0 -264.61c193.08,-193.08 386.25,-386.23 574.9,-574.89l599.44 599.44 0 253.99 -594.15 -594.15z"></path>
    <path fill="none" fill-rule="nonzero" stroke="#3C8059" stroke-width="197.15" stroke-miterlimit="10" d="M717.79 4295.62c0,-2127.96 1725.06,-3853 3853,-3853 2127.96,0 3853.03,1725.04 3853.03,3853"></path>
   </g>
  </g>
 </g>
</svg>