<svg width="226" height="48" viewBox="0 0 226 48" fill="none" xmlns="http://www.w3.org/2000/svg">
<g clip-path="url(#clip0_582_1057)">
<path d="M197.714 33.972C200.561 33.972 202.822 32.854 204.288 31.0321V33.4338H209.94V23.1235C209.94 16.954 205.167 12.3164 198.677 12.3164C192.313 12.3164 187.457 17.2438 187.457 23.1235C187.457 29.086 191.686 33.972 197.714 33.972ZM198.677 28.4649C195.621 28.4649 193.402 26.0634 193.402 23.1649C193.402 20.2665 195.621 17.8648 198.677 17.8648C201.734 17.8648 203.995 20.2665 203.995 23.1649C203.995 26.0634 201.734 28.4649 198.677 28.4649Z" fill="#F2F7FF"/>
<path d="M212.571 3.49658V33.4335H218.516V3.49658H212.571Z" fill="#F2F7FF"/>
<path d="M219.396 3.49658V18.465V33.4335H225.341V3.49658H219.396Z" fill="#F2F7FF"/>
<g opacity="0.7">
<path opacity="0.7" d="M172.786 48.0003C171.879 48.0003 171.057 47.8118 170.32 47.4348C169.593 47.0496 169.017 46.521 168.592 45.8489C168.177 45.1686 167.97 44.4023 167.97 43.55C167.97 42.6977 168.177 41.9354 168.592 41.2634C169.017 40.5831 169.593 40.0544 170.32 39.6774C171.057 39.2922 171.883 39.0996 172.799 39.0996C173.569 39.0996 174.264 39.2307 174.882 39.4931C175.509 39.7553 176.034 40.1324 176.458 40.6241L175.136 41.8043C174.535 41.1321 173.79 40.7961 172.9 40.7961C172.349 40.7961 171.858 40.9151 171.426 41.1527C170.994 41.3822 170.656 41.7059 170.409 42.1239C170.173 42.5418 170.054 43.0172 170.054 43.55C170.054 44.0826 170.173 44.5581 170.409 44.976C170.656 45.3941 170.994 45.7218 171.426 45.9596C171.858 46.1891 172.349 46.3038 172.9 46.3038C173.79 46.3038 174.535 45.9636 175.136 45.2834L176.458 46.4636C176.034 46.9635 175.509 47.3447 174.882 47.6069C174.255 47.8692 173.557 48.0003 172.786 48.0003Z" fill="#F2F7FF"/>
<path opacity="0.7" d="M183.532 46.0091H179.402L178.615 47.8531H176.505L180.469 39.2476H182.503L186.479 47.8531H184.32L183.532 46.0091ZM182.883 44.497L181.474 41.2022L180.063 44.497H182.883Z" fill="#F2F7FF"/>
<path opacity="0.7" d="M193.07 47.8531L191.354 45.4558H191.253H189.46V47.8531H187.403V39.2476H191.253C192.04 39.2476 192.722 39.3745 193.299 39.6286C193.884 39.8827 194.332 40.2433 194.645 40.7105C194.959 41.1776 195.115 41.7308 195.115 42.3701C195.115 43.0094 194.954 43.5626 194.633 44.0297C194.32 44.4887 193.87 44.8412 193.285 45.0871L195.281 47.8531H193.07ZM193.031 42.3701C193.031 41.8865 192.87 41.5178 192.548 41.2637C192.226 41.0014 191.757 40.8703 191.139 40.8703H189.46V43.87H191.139C191.757 43.87 192.226 43.7389 192.548 43.4765C192.87 43.2143 193.031 42.8455 193.031 42.3701Z" fill="#F2F7FF"/>
<path opacity="0.7" d="M203.278 43.3783C203.786 43.534 204.185 43.7962 204.472 44.165C204.761 44.5256 204.904 44.9723 204.904 45.505C204.904 46.259 204.6 46.8409 203.989 47.2507C203.388 47.6524 202.506 47.8531 201.347 47.8531H196.746V39.2476H201.093C202.177 39.2476 203.007 39.4483 203.583 39.85C204.167 40.2515 204.46 40.7965 204.46 41.485C204.46 41.903 204.353 42.2759 204.141 42.6037C203.938 42.9316 203.651 43.1897 203.278 43.3783ZM198.793 40.7473V42.7759H200.838C201.347 42.7759 201.732 42.6898 201.995 42.5176C202.257 42.3455 202.389 42.0914 202.389 41.7554C202.389 41.4194 202.257 41.1694 201.995 41.0056C201.732 40.8334 201.347 40.7473 200.838 40.7473H198.793ZM201.193 46.3532C201.736 46.3532 202.142 46.2673 202.413 46.0951C202.693 45.923 202.833 45.6566 202.833 45.296C202.833 44.5829 202.287 44.2265 201.193 44.2265H198.793V46.3532H201.193Z" fill="#F2F7FF"/>
<path opacity="0.7" d="M210.77 48.0003C209.847 48.0003 209.012 47.8077 208.266 47.4225C207.529 47.0373 206.949 46.5087 206.526 45.8366C206.111 45.1563 205.903 44.3942 205.903 43.55C205.903 42.7058 206.111 41.9477 206.526 41.2757C206.949 40.5954 207.529 40.0626 208.266 39.6774C209.012 39.2922 209.847 39.0996 210.77 39.0996C211.692 39.0996 212.522 39.2922 213.259 39.6774C213.996 40.0626 214.577 40.5954 215.001 41.2757C215.424 41.9477 215.636 42.7058 215.636 43.55C215.636 44.3942 215.424 45.1563 215.001 45.8366C214.577 46.5087 213.996 47.0373 213.259 47.4225C212.522 47.8077 211.692 48.0003 210.77 48.0003ZM210.77 46.3038C211.295 46.3038 211.769 46.1891 212.193 45.9596C212.616 45.7218 212.947 45.3941 213.184 44.976C213.429 44.5581 213.553 44.0826 213.553 43.55C213.553 43.0172 213.429 42.5418 213.184 42.1239C212.947 41.7059 212.616 41.3822 212.193 41.1527C211.769 40.9151 211.295 40.7961 210.77 40.7961C210.244 40.7961 209.77 40.9151 209.346 41.1527C208.923 41.3822 208.588 41.7059 208.343 42.1239C208.105 42.5418 207.986 43.0172 207.986 43.55C207.986 44.0826 208.105 44.5581 208.343 44.976C208.588 45.3941 208.923 45.7218 209.346 45.9596C209.77 46.1891 210.244 46.3038 210.77 46.3038Z" fill="#F2F7FF"/>
<path opacity="0.7" d="M225.341 39.2476V47.8531H223.651L219.217 42.6283V47.8531H217.184V39.2476H218.886L223.308 44.4724V39.2476H225.341Z" fill="#F2F7FF"/>
</g>
<path fill-rule="evenodd" clip-rule="evenodd" d="M19.1237 19.0723L38.2473 38.1452H19.1237V38.1454L0 19.0726H19.1237V19.0723Z" fill="#F2F7FF"/>
<path fill-rule="evenodd" clip-rule="evenodd" d="M19.1238 9.53662V4.16847e-07L28.6856 0V0.000197827C33.9665 0.000197827 38.2475 4.26979 38.2475 9.53662C38.2475 14.8034 33.9665 19.0731 28.6856 19.0731C28.6649 19.0731 28.6441 19.073 28.6234 19.0728H19.1238V9.53662ZM0 0.000197827L19.1237 19.0731V0.000197827H0Z" fill="#5F89F4"/>
<path d="M59.5755 33.4329L59.6173 24.5306H62.0038C65.1858 24.5306 66.4 25.8969 67.698 28.4641L70.2099 33.4329H76.8251L74.1038 27.9259C72.6383 25.0275 71.5917 23.1228 69.7914 22.129C73.392 21.1767 75.6529 18.2368 75.6529 14.4274C75.6529 8.50626 70.7542 5.56641 64.3904 5.56641H53.5464V33.4329H59.5755ZM64.474 11.1563C67.2373 11.1563 69.3727 12.3157 69.3727 15.0484C69.3727 17.6571 67.2793 19.1476 64.3904 19.1476H59.6173L59.6592 11.1563H64.474Z" fill="#F2F7FF"/>
<path d="M89.6878 33.9717C94.0839 33.9717 97.5172 31.86 99.3175 28.1748L94.7537 25.8974C93.7909 27.8021 91.9068 28.8787 89.6459 28.8787C86.6732 28.8787 84.538 27.0569 84.1193 24.324H99.5268V22.5849C99.5268 16.995 95.7167 12.1919 89.1435 12.1919C82.7377 12.1919 78.3833 17.0778 78.3833 22.9989C78.3833 29.5412 83.24 33.9717 89.6878 33.9717ZM84.3704 21.0528C84.7891 18.9825 86.5058 17.3263 89.1016 17.3263C91.6137 17.3263 93.3722 18.9411 93.6233 21.0528H84.3704Z" fill="#F2F7FF"/>
<path d="M128.374 12.1919C124.648 12.1919 121.717 13.931 120.419 16.7466C119.205 13.931 116.316 12.1919 112.338 12.1919C105.639 12.1919 102.248 16.995 102.248 22.7091V33.4334H108.193V23.6615C108.193 20.556 109.491 17.906 112.799 17.906C116.023 17.906 117.404 20.5146 117.404 23.6615V33.4334H123.35V23.6201C123.35 20.5146 124.731 17.906 127.955 17.906C131.221 17.906 132.603 20.556 132.603 23.7029V33.4334H138.548V22.7091C138.548 16.995 135.115 12.1919 128.374 12.1919Z" fill="#F2F7FF"/>
<path d="M153.453 33.971C159.817 33.971 164.715 29.0851 164.715 23.1226C164.715 17.2427 159.859 12.3154 153.453 12.3154C147.131 12.3154 142.232 17.2013 142.232 23.1226C142.232 29.0851 147.089 33.971 153.453 33.971ZM153.453 28.4639C150.397 28.4639 148.178 26.0624 148.178 23.164C148.178 20.2655 150.397 17.8639 153.453 17.8639C156.509 17.8639 158.77 20.2655 158.77 23.164C158.77 26.0624 156.509 28.4639 153.453 28.4639Z" fill="#F2F7FF"/>
<path d="M170.647 30.0374C171.61 32.6875 173.536 34.0124 176.048 34.0124C178.602 34.0124 180.402 32.6875 181.407 30.0374L187.812 12.9365H181.491L176.09 28.2155L170.647 12.9365H164.324L170.647 30.0374ZM176.048 28.3811H176.09C176.09 28.3811 176.09 28.3811 176.048 28.3811Z" fill="#F2F7FF"/>
</g>
<defs>
<clipPath id="clip0_582_1057">
<rect width="226" height="48" fill="white"/>
</clipPath>
</defs>
</svg>
